HIERARCHY
ROOT Pelvis
{
	OFFSET 0.000000 0.941512 0.000000
	CHANNELS 6 Xposition Yposition Zposition Zrotation Yrotation Xrotation 
	JOINT Pelvis_L_Hip
	{
		OFFSET 0.000000 0.000000 0.000000
		CHANNELS 3 Zrotation Yrotation Xrotation
		JOINT L_Hip
		{
			OFFSET 0.062321 -0.080322 -0.016990
			CHANNELS 3 Zrotation Yrotation Xrotation
			JOINT L_Knee
			{
				OFFSET 0.093051 -0.381305 -0.029784
				CHANNELS 3 Zrotation Yrotation Xrotation
				JOINT L_Ankle
				{
					OFFSET -0.010371 -0.431000 -0.033614
					CHANNELS 3 Zrotation Yrotation Xrotation
					End Site #name: L_Foot
					{
						OFFSET 0.069299 -0.038670 0.119418
					}
				}
			}
		}
	}
	JOINT Pelvis_R_Hip
	{
		OFFSET 0.000000 0.000000 0.000000
		CHANNELS 3 Zrotation Yrotation Xrotation
		JOINT R_Hip
		{
			OFFSET -0.055334 -0.094904 -0.002373
			CHANNELS 3 Zrotation Yrotation Xrotation
			JOINT R_Knee
			{
				OFFSET -0.064207 -0.384370 -0.019592
				CHANNELS 3 Zrotation Yrotation Xrotation
				JOINT R_Ankle
				{
					OFFSET 0.025418 -0.419734 -0.065953
					CHANNELS 3 Zrotation Yrotation Xrotation
					End Site #name: R_Foot
					{
						OFFSET -0.057233 -0.039888 0.132134
					}
				}
			}
		}
	}
	JOINT Pelvis_Spine1
	{
		OFFSET 0.000000 0.000000 0.000000
		CHANNELS 3 Zrotation Yrotation Xrotation
		JOINT Spine1
		{
			OFFSET -0.005562 0.124093 -0.043360
			CHANNELS 3 Zrotation Yrotation Xrotation
			JOINT Spine2
			{
				OFFSET 0.012244 0.139499 0.029894
				CHANNELS 3 Zrotation Yrotation Xrotation
				JOINT Spine3
				{
					OFFSET -0.002556 0.056561 0.009225
					CHANNELS 3 Zrotation Yrotation Xrotation
					JOINT Spine3_Neck
					{
						OFFSET 0.000000 0.000000 0.000000
						CHANNELS 3 Zrotation Yrotation Xrotation
						JOINT Neck
						{
							OFFSET -0.005205 0.217920 -0.024551
							CHANNELS 3 Zrotation Yrotation Xrotation
							End Site #name: Head
							{
								OFFSET 0.002365 0.091850 0.046637
							}
						}
					}
					JOINT Spine3_L_Collar
					{
						OFFSET 0.000000 0.000000 0.000000
						CHANNELS 3 Zrotation Yrotation Xrotation
						JOINT L_Collar
						{
							OFFSET 0.072225 0.116603 -0.009480
							CHANNELS 3 Zrotation Yrotation Xrotation
							JOINT L_Shoulder
							{
								OFFSET 0.115937 -0.058643 -0.021018
								CHANNELS 3 Zrotation Yrotation Xrotation
								JOINT L_Elbow
								{
									OFFSET 0.021994 -0.254722 -0.024492
									CHANNELS 3 Zrotation Yrotation Xrotation
									End Site #name: L_Wrist
									{
										OFFSET 0.048810 -0.240214 0.103329
									}
								}
							}
						}
					}
					JOINT Spine3_R_Collar
					{
						OFFSET 0.000000 0.000000 0.000000
						CHANNELS 3 Zrotation Yrotation Xrotation
						JOINT R_Collar
						{
							OFFSET -0.073372 0.120704 -0.024611
							CHANNELS 3 Zrotation Yrotation Xrotation
							JOINT R_Shoulder
							{
								OFFSET -0.108089 -0.054969 -0.020504
								CHANNELS 3 Zrotation Yrotation Xrotation
								JOINT R_Elbow
								{
									OFFSET -0.033684 -0.260739 0.009889
									CHANNELS 3 Zrotation Yrotation Xrotation
									End Site #name: R_Wrist
									{
										OFFSET -0.067980 -0.232763 0.118463
									}
								}
							}
						}
					}
				}
			}
		}
	}
}
MOTION
Frames: 11
Frame Time: 0.041667
0.000000 0.961746 0.000000 -3.172533 -4.622162 0.941409 0.000000 0.000000 0.000000 -1.807193 -1.248399 -5.335125 -1.239108 0.029299 7.165227 -3.764825 -3.990483 4.273763 0.000000 0.000000 0.000000 3.258868 0.719486 -4.597468 1.756436 -0.159025 2.230315 2.051243 -6.294758 9.582786 0.000000 0.000000 0.000000 4.687165 -0.870215 -1.199673 -1.012965 0.031108 -2.532487 2.217708 3.882459 -0.405475 0.000000 0.000000 0.000000 -10.530667 5.946920 6.609061 0.000000 0.000000 0.000000 20.279030 -2.175984 2.463878 -12.522437 -0.134069 -6.811329 -25.304392 -12.115055 -1.131336 0.000000 0.000000 0.000000 -24.854219 8.796389 -1.883706 16.148976 -2.803411 12.450647 11.360576 9.135712 -7.141784 
0.000530 0.961701 0.000154 -3.160288 -4.653445 0.922444 0.000000 0.000000 0.000000 -1.857323 -1.236006 -5.291680 -1.244083 0.030374 7.144151 -3.741655 -3.969789 4.247877 0.000000 0.000000 0.000000 3.195082 0.714853 -4.569698 1.778628 -0.163008 2.223877 2.064740 -6.261082 9.578963 0.000000 0.000000 0.000000 4.764424 -0.884532 -1.211452 -0.987345 0.027995 -2.524638 2.177346 3.869504 -0.491264 0.000000 0.000000 0.000000 -10.523341 5.961869 6.817233 0.000000 0.000000 0.000000 20.161344 -2.196235 2.420651 -12.488136 -0.135889 -6.807105 -25.349186 -12.167474 -1.187395 0.000000 0.000000 0.000000 -24.811788 8.901858 -1.972795 15.847671 -2.736267 12.297549 11.459603 9.154834 -7.041267 
0.001535 0.961500 0.000491 -3.159233 -4.667141 0.911481 0.000000 0.000000 0.000000 -1.912037 -1.221996 -5.242906 -1.249405 0.031591 7.100567 -3.742630 -3.974740 4.247309 0.000000 0.000000 0.000000 3.122907 0.708110 -4.530250 1.790966 -0.165797 2.208388 2.088371 -6.221422 9.595208 0.000000 0.000000 0.000000 4.896838 -0.897109 -1.325023 -0.976154 0.027958 -2.494662 2.139104 3.843821 -0.525029 0.000000 0.000000 0.000000 -10.485375 5.958174 7.005110 0.000000 0.000000 0.000000 20.119296 -2.288267 2.339402 -12.600229 -0.139635 -6.840490 -25.469641 -12.243743 -1.230497 0.000000 0.000000 0.000000 -24.830876 9.053847 -2.093370 15.623799 -2.629827 11.976849 11.313840 8.989504 -6.883194 
0.002536 0.961308 0.000834 -3.160412 -4.645347 0.875161 0.000000 0.000000 0.000000 -1.949035 -1.207170 -5.189416 -1.275614 0.035493 7.077867 -3.744418 -4.004606 4.232215 0.000000 0.000000 0.000000 3.066420 0.699617 -4.481708 1.798822 -0.166405 2.225396 2.087978 -6.214353 9.590715 0.000000 0.000000 0.000000 4.961414 -0.896246 -1.431104 -0.943843 0.025150 -2.460764 2.128742 3.832290 -0.542555 0.000000 0.000000 0.000000 -10.437161 5.940592 7.125715 0.000000 0.000000 0.000000 20.103221 -2.395564 2.256617 -12.733978 -0.146486 -6.893696 -25.704478 -12.306346 -1.119324 0.000000 0.000000 0.000000 -24.837852 9.168061 -2.189951 15.509224 -2.528382 11.620357 10.982450 8.703259 -6.705801 
0.003335 0.961149 0.001100 -3.164666 -4.610334 0.829131 0.000000 0.000000 0.000000 -1.967850 -1.193053 -5.136756 -1.307229 0.039951 7.067285 -3.743594 -4.039713 4.208975 0.000000 0.000000 0.000000 3.034035 0.693066 -4.443976 1.799300 -0.164112 2.277512 2.070279 -6.230329 9.569211 0.000000 0.000000 0.000000 4.975714 -0.891181 -1.489279 -0.918742 0.021955 -2.454750 2.125810 3.833854 -0.558531 0.000000 0.000000 0.000000 -10.397110 5.922621 7.202518 0.000000 0.000000 0.000000 20.088111 -2.470063 2.201906 -12.769400 -0.149284 -6.917200 -25.944816 -12.370490 -1.001728 0.000000 0.000000 0.000000 -24.831747 9.231633 -2.249642 15.459218 -2.462387 11.390491 10.778020 8.547662 -6.642959 
0.003977 0.961035 0.001271 -3.167720 -4.554582 0.791961 0.000000 0.000000 0.000000 -1.980104 -1.190429 -5.128050 -1.332296 0.042933 7.107781 -3.741894 -4.082234 4.179151 0.000000 0.000000 0.000000 3.014799 0.692030 -4.435168 1.799931 -0.160504 2.358883 2.036764 -6.273292 9.538602 0.000000 0.000000 0.000000 4.965582 -0.885627 -1.512952 -0.917145 0.020965 -2.469456 2.109642 3.827812 -0.569505 0.000000 0.000000 0.000000 -10.360977 5.902671 7.241348 0.000000 0.000000 0.000000 20.068601 -2.514062 2.170350 -12.681273 -0.146752 -6.882884 -26.140870 -12.435187 -0.929518 0.000000 0.000000 0.000000 -24.775100 9.245420 -2.274360 15.453737 -2.424243 11.258008 10.731082 8.538441 -6.695922 
0.004536 0.960965 0.001269 -3.170697 -4.461431 0.798991 0.000000 0.000000 0.000000 -1.981939 -1.217142 -5.232902 -1.356909 0.045107 7.233680 -3.741142 -4.132253 4.145489 0.000000 0.000000 0.000000 3.006695 0.700184 -4.474866 1.800325 -0.157569 2.428301 1.986582 -6.361514 9.516015 0.000000 0.000000 0.000000 4.931117 -0.874718 -1.542438 -0.926821 0.021098 -2.492597 2.086569 3.808290 -0.581904 0.000000 0.000000 0.000000 -10.317837 5.877506 7.271809 0.000000 0.000000 0.000000 20.060077 -2.569998 2.134036 -12.519464 -0.145759 -6.845526 -26.267594 -12.473786 -0.881191 0.000000 0.000000 0.000000 -24.654247 9.225590 -2.280363 15.520842 -2.411986 11.202723 10.780122 8.587212 -6.738140 
0.005002 0.960927 0.001205 -3.179405 -4.387460 0.830282 0.000000 0.000000 0.000000 -1.974171 -1.250032 -5.360425 -1.379016 0.047102 7.353203 -3.735255 -4.163752 4.114623 0.000000 0.000000 0.000000 3.011084 0.709003 -4.519849 1.794032 -0.155411 2.455995 1.948361 -6.438812 9.508523 0.000000 0.000000 0.000000 4.894065 -0.862730 -1.578143 -0.953651 0.024435 -2.498852 2.073252 3.798279 -0.609252 0.000000 0.000000 0.000000 -10.289790 5.861703 7.307672 0.000000 0.000000 0.000000 20.083689 -2.657429 2.078443 -12.314759 -0.145227 -6.796555 -26.366044 -12.502181 -0.843388 0.000000 0.000000 0.000000 -24.534184 9.243457 -2.317189 15.649708 -2.426258 11.220729 10.897798 8.654019 -6.720290 
0.005348 0.960893 0.001259 -3.199218 -4.378058 0.840470 0.000000 0.000000 0.000000 -1.954697 -1.262154 -5.405677 -1.401700 0.050091 7.401375 -3.721122 -4.163025 4.090838 0.000000 0.000000 0.000000 3.026530 0.711593 -4.534162 1.781727 -0.152338 2.476662 1.940013 -6.456680 9.507083 0.000000 0.000000 0.000000 4.871593 -0.855499 -1.599478 -0.978059 0.029936 -2.456767 2.077192 3.806906 -0.638379 0.000000 0.000000 0.000000 -10.317564 5.876443 7.305138 0.000000 0.000000 0.000000 20.141549 -2.755096 2.018468 -12.106468 -0.154150 -6.804970 -26.444651 -12.515106 -0.786129 0.000000 0.000000 0.000000 -24.468392 9.322161 -2.393404 15.751267 -2.463343 11.335517 11.176658 8.830838 -6.721415 
0.005686 0.960872 0.001438 -3.230120 -4.392520 0.836639 0.000000 0.000000 0.000000 -1.940129 -1.255745 -5.379598 -1.409775 0.051491 7.386832 -3.710049 -4.160936 4.074039 0.000000 0.000000 0.000000 3.044255 0.710792 -4.531210 1.768861 -0.148896 2.500234 1.944804 -6.447276 9.507919 0.000000 0.000000 0.000000 4.855715 -0.850741 -1.611579 -0.964768 0.031505 -2.389788 2.097674 3.812804 -0.654123 0.000000 0.000000 0.000000 -10.380787 5.912767 7.294183 0.000000 0.000000 0.000000 20.214377 -2.809731 1.989912 -11.971087 -0.164586 -6.829174 -26.472516 -12.532706 -0.789371 0.000000 0.000000 0.000000 -24.462681 9.392907 -2.452193 15.766395 -2.498127 11.463769 11.524695 9.062420 -6.749867 
0.006138 0.960858 0.001629 -3.255856 -4.394433 0.830129 0.000000 0.000000 0.000000 -1.940668 -1.247198 -5.346611 -1.413528 0.052198 7.363854 -3.702450 -4.168548 4.056970 0.000000 0.000000 0.000000 3.046511 0.709181 -4.523003 1.760721 -0.146641 2.517457 1.950121 -6.443272 9.516529 0.000000 0.000000 0.000000 4.836276 -0.845640 -1.620536 -0.929838 0.029244 -2.338067 2.120114 3.805936 -0.644059 0.000000 0.000000 0.000000 -10.401982 5.927260 7.309454 0.000000 0.000000 0.000000 20.268879 -2.818795 1.992296 -11.889758 -0.172040 -6.855265 -26.482126 -12.573529 -0.864868 0.000000 0.000000 0.000000 -24.460974 9.402301 -2.458565 15.744082 -2.506087 11.488905 11.731751 9.163580 -6.679177 
